<svg width="200" height="122" viewBox="0 0 200 122" xmlns="http://www.w3.org/2000/svg"><defs><linearGradient x1="68.163%" y1="17.462%" x2="27.867%" y2="89.706%" id="a"><stop stop-color="#41873F" offset="0%"/><stop stop-color="#418B3D" offset="33%"/><stop stop-color="#409637" offset="64%"/><stop stop-color="#3FA92D" offset="93%"/><stop stop-color="#3FAE2A" offset="100%"/></linearGradient><linearGradient x1="43.284%" y1="55.197%" x2="159.322%" y2="-18.363%" id="b"><stop stop-color="#41873F" offset="14%"/><stop stop-color="#54A044" offset="40%"/><stop stop-color="#66B748" offset="71%"/><stop stop-color="#6CC04A" offset="91%"/></linearGradient><linearGradient x1="-4.566%" y1="50.05%" x2="101.573%" y2="50.05%" id="c"><stop stop-color="#6CC04A" offset="9%"/><stop stop-color="#66B748" offset="29%"/><stop stop-color="#54A044" offset="60%"/><stop stop-color="#41873F" offset="86%"/></linearGradient></defs><g fill="none" fill-rule="evenodd"><path d="M98.975 116.694a3.45 3.45 0 0 1-1.724-.46l-5.48-3.245c-.82-.46-.41-.63-.14-.72a10.943 10.943 0 0 0 2.47-1.13.412.412 0 0 1 .42 0l4.22 2.5a.55.55 0 0 0 .51 0l16.44-9.48a.517.517 0 0 0 .25-.44V84.8a.53.53 0 0 0-.26-.45l-16.43-9.477a.518.518 0 0 0-.5 0L82.3 84.35a.526.526 0 0 0-.26.45v18.952c0 .187.1.356.26.444l4.5 2.594c2.444 1.235 3.938-.22 3.938-1.647V86.415c0-.26.21-.47.47-.47h2.088a.47.47 0 0 1 .48.47v18.715c0 3.253-1.783 5.13-4.867 5.13a7.034 7.034 0 0 1-3.84-1.025l-4.24-2.47a3.474 3.474 0 0 1-1.73-2.996V84.81a3.46 3.46 0 0 1 1.72-2.996l16.42-9.505a3.604 3.604 0 0 1 3.46 0l16.43 9.48a3.465 3.465 0 0 1 1.72 3v18.95a3.474 3.474 0 0 1-1.73 3l-16.44 9.47a3.45 3.45 0 0 1-1.75.47z" fill="#699F63"/><path d="M104.033 103.598c-7.194 0-8.698-3.293-8.698-6.07a.47.47 0 0 1 .47-.468h2.126a.48.48 0 0 1 .47.412c.33 2.163 1.28 3.254 5.64 3.254 3.47 0 4.94-.784 4.94-2.622 0-1.053-.41-1.838-5.8-2.374-4.49-.44-7.28-1.436-7.28-5.036 0-3.312 2.8-5.293 7.48-5.293 5.27 0 7.88 1.83 8.2 5.75a.48.48 0 0 1-.43.52h-2.17a.47.47 0 0 1-.46-.37c-.5-2.27-1.75-3-5.13-3-3.78 0-4.22 1.31-4.22 2.31 0 1.2.52 1.54 5.63 2.22 5.11.68 7.46 1.61 7.46 5.16s-2.95 5.63-8.18 5.63zm23.747-19.844a3.17 3.17 0 0 1-3.13 3.206 3.17 3.17 0 1 1 3.13-3.206zm-5.825 0a2.652 2.652 0 1 0 2.663-2.65 2.653 2.653 0 0 0-2.653 2.64l-.01.01zm1.466-1.77h1.24a.958.958 0 0 1 1.24.957.823.823 0 0 1-.67.88c.49 0 .52.36.59.83.02.33.08.65.18.96h-.79c0-.17-.13-1.07-.13-1.12a.326.326 0 0 0-.33-.3h-.65v1.42h-.69V82l.04-.01zm.67 1.56h.56a.48.48 0 0 0 .54-.498.43.43 0 0 0-.36-.488h-.77v.957l.05.03z" fill="#699F63"/><path d="M48.053 42.534A2.096 2.096 0 0 0 47 40.706L29.576 30.683a2.06 2.06 0 0 0-.958-.277h-.182a2.08 2.08 0 0 0-.958.277L10.054 40.706A2.106 2.106 0 0 0 9 42.534V69.52c-.003.376.2.724.527.91.32.192.723.192 1.044 0l10.36-5.926a2.115 2.115 0 0 0 1.06-1.83V50.07c0-.75.4-1.445 1.06-1.82l4.41-2.536a2.06 2.06 0 0 1 2.1 0l4.4 2.537A2.096 2.096 0 0 1 35 50.07v12.61c0 .76.4 1.45 1.05 1.83l10.35 5.93c.324.194.73.194 1.053 0 .327-.19.528-.534.53-.91l.074-26.985zM131.888 5.44a1.054 1.054 0 0 0-1.57.958v26.68a.737.737 0 0 1-1.112.64l-4.3-2.518a2.11 2.11 0 0 0-2.1 0l-17.432 10.052a2.096 2.096 0 0 0-1.054 1.818v20.103a2.11 2.11 0 0 0 1.054 1.82l17.433 10.06a2.11 2.11 0 0 0 2.108 0l17.434-10.06a2.106 2.106 0 0 0 1.05-1.82V13.06a2.11 2.11 0 0 0-1.08-1.838L131.88 5.44zm-1.62 51.147a.526.526 0 0 1-.257.46l-5.98 3.474a.527.527 0 0 1-.52 0l-5.98-3.44a.526.526 0 0 1-.25-.46v-6.94a.526.526 0 0 1 .26-.46l5.99-3.45a.527.527 0 0 1 .53 0l5.99 3.46a.52.52 0 0 1 .26.46v6.91zm59.678-7.093a2.106 2.106 0 0 0 1.054-1.82v-4.862a2.106 2.106 0 0 0-1.054-1.82l-17.338-10.05a2.11 2.11 0 0 0-2.107 0l-17.42 10.05a2.106 2.106 0 0 0-1.05 1.82v20.103a2.096 2.096 0 0 0 1.07 1.828l17.32 9.87a2.1 2.1 0 0 0 2.06 0l10.48-5.82a1.053 1.053 0 0 0 0-1.84l-17.55-10.05a1.053 1.053 0 0 1-.52-.957v-6.242a1.05 1.05 0 0 1 .53-.957l5.46-3.15a1.054 1.054 0 0 1 1.06 0l5.46 3.15c.34.196.55.565.53.957v4.93a1.053 1.053 0 0 0 1.58.91l10.47-6.05z" fill="#FFF"/><path d="M171.315 48.556a.412.412 0 0 1 .412 0l3.353 1.914c.125.074.2.21.2.354v3.83a.41.41 0 0 1-.2.354l-3.343 1.914a.412.412 0 0 1-.412 0l-3.353-1.914a.412.412 0 0 1-.2-.355v-3.83a.41.41 0 0 1 .2-.353l3.343-1.914z" fill="#699F63"/><path d="M77.22 31.038a2.1 2.1 0 0 0-2.097 0L57.786 41.03a2.096 2.096 0 0 0-1.054 1.81v20.01a2.1 2.1 0 0 0 1.044 1.81l17.32 10.02a2.1 2.1 0 0 0 2.097 0L94.53 64.677a2.096 2.096 0 0 0 1.045-1.81V42.85a2.096 2.096 0 0 0-1.054-1.81l-17.3-10z" fill="url(#a)"/><path d="M94.588 41.03l-17.386-9.99a2.08 2.08 0 0 0-.546-.192l-19.512 33.34c.168.19.365.35.584.478L75.095 74.67c.49.28 1.074.353 1.62.2L95.01 41.366a2.28 2.28 0 0 0-.423-.335z" fill="url(#b)"/><path d="M94.588 64.666c.505-.29.873-.768 1.025-1.33L76.56 30.79a2.128 2.128 0 0 0-1.475.228l-17.232 9.946L76.465 74.88a2.1 2.1 0 0 0 .766-.258l17.36-9.956z" fill="url(#c)"/></g></svg>