<svg width="200" height="65" viewBox="0 0 200 65" xmlns="http://www.w3.org/2000/svg"><g fill="none" fill-rule="evenodd"><path d="M36.155 32.566c0-.542-.285-1.04-.753-1.31l-12.468-7.174a1.476 1.476 0 0 0-.687-.2h-.13c-.237.01-.473.076-.687.2L8.96 31.257c-.464.27-.753.767-.753 1.31l.027 19.32c0 .27.14.52.376.652a.727.727 0 0 0 .748 0l7.41-4.25c.47-.28.754-.77.754-1.31v-9.02a1.5 1.5 0 0 1 .752-1.31l3.156-1.82a1.505 1.505 0 0 1 1.504 0l3.154 1.82a1.5 1.5 0 0 1 .753 1.3v9.02c0 .53.29 1.03.76 1.3l7.41 4.24a.737.737 0 0 0 .76 0 .754.754 0 0 0 .38-.65l.03-19.32m65.42 10.07a.38.38 0 0 1-.18.32l-4.28 2.47a.377.377 0 0 1-.37 0l-4.28-2.47a.375.375 0 0 1-.19-.33v-4.95c0-.14.07-.26.19-.33l4.28-2.47a.38.38 0 0 1 .38 0l4.29 2.47a.38.38 0 0 1 .19.32v4.94zM102.75 6a.756.756 0 0 0-1.12.66v19.136a.528.528 0 0 1-.79.457l-3.12-1.8a1.507 1.507 0 0 0-1.51 0l-12.48 7.2a1.5 1.5 0 0 0-.75 1.304v14.4c0 .54.29 1.036.75 1.305l12.47 7.204c.467.27 1.04.27 1.508 0l12.475-7.204c.468-.27.755-.766.755-1.305V11.462c0-.546-.296-1.05-.77-1.315l-7.426-4.143zm44.622 31.55c.46-.27.75-.764.75-1.3v-3.49a1.51 1.51 0 0 0-.75-1.303l-12.397-7.196a1.506 1.506 0 0 0-1.51 0l-12.47 7.2a1.504 1.504 0 0 0-.753 1.31v14.39c0 .54.29 1.04.76 1.31l12.4 7.06a1.504 1.504 0 0 0 1.476.01l7.494-4.16a.75.75 0 0 0 .01-1.31l-12.55-7.2a.754.754 0 0 1-.38-.65V37.7c0-.27.146-.518.38-.652l3.905-2.25a.747.747 0 0 1 .75 0l3.91 2.25a.753.753 0 0 1 .38.653v3.55a.753.753 0 0 0 1.13.65l7.47-4.34" fill="#FFF"/><path d="M58.837 24.184a1.5 1.5 0 0 1 1.506 0l12.472 7.197c.466.27.753.77.753 1.31V47.1c0 .538-.287 1.035-.753 1.305l-12.472 7.2c-.466.27-1.04.27-1.507 0L46.366 48.4a1.508 1.508 0 0 1-.752-1.305v-14.41c0-.537.287-1.035.754-1.304l12.47-7.19m112.74 31.62a2.46 2.46 0 0 1-1.233-.33l-3.927-2.32c-.586-.33-.3-.44-.107-.51.79-.27.95-.33 1.78-.8.09-.05.2-.03.29.02l3.02 1.79a.38.38 0 0 0 .37 0l11.76-6.78a.37.37 0 0 0 .18-.32V32.97a.38.38 0 0 0-.18-.324l-11.75-6.782a.367.367 0 0 0-.36 0l-11.76 6.786a.378.378 0 0 0-.18.32v13.57c0 .13.07.255.19.317l3.23 1.86c1.74.875 2.82-.154 2.82-1.188v-13.4c0-.19.15-.34.34-.34h1.49c.18 0 .34.15.34.34v13.4c0 2.33-1.27 3.67-3.49 3.67-.68 0-1.21 0-2.71-.74l-3.08-1.78a2.483 2.483 0 0 1-1.23-2.15V32.97c0-.88.47-1.705 1.23-2.143l11.76-6.796a2.575 2.575 0 0 1 2.48 0l11.76 6.79a2.48 2.48 0 0 1 1.24 2.14v13.58a2.49 2.49 0 0 1-1.23 2.15l-11.76 6.79c-.38.22-.8.33-1.24.33" fill="#78B742"/><path d="M175.21 46.455c-5.146 0-6.224-2.363-6.224-4.344 0-.18.152-.33.34-.33h1.52c.17 0 .312.12.34.29.228 1.55.913 2.33 4.025 2.33 2.48 0 3.54-.56 3.54-1.87 0-.76-.3-1.32-4.15-1.69-3.21-.31-5.2-1.03-5.2-3.6 0-2.37 2-3.79 5.36-3.79 3.77 0 5.63 1.31 5.87 4.12a.344.344 0 0 1-.09.26.347.347 0 0 1-.24.11h-1.53a.34.34 0 0 1-.33-.27c-.36-1.63-1.25-2.15-3.67-2.15-2.7 0-3.02.95-3.02 1.65 0 .86.37 1.11 4.03 1.59 3.62.48 5.33 1.16 5.33 3.7 0 2.57-2.13 4.03-5.86 4.03m-41.19-9.59a.29.29 0 0 1 .29 0l2.4 1.38a.29.29 0 0 1 .15.25v2.77a.29.29 0 0 1-.14.25l-2.39 1.38a.287.287 0 0 1-.29 0l-2.39-1.38a.287.287 0 0 1-.15-.25v-2.77a.29.29 0 0 1 .14-.25l2.39-1.38m57.28-9.33h.4c.32 0 .38-.23.38-.36 0-.35-.24-.35-.37-.35h-.41v.71zm-.48-1.11h.88c.3 0 .89 0 .89.67 0 .47-.3.57-.48.63.35.02.37.25.42.57.03.2.06.55.13.67h-.54c-.01-.12-.1-.76-.1-.8-.03-.14-.08-.22-.26-.22h-.44V29h-.49v-2.54zm-1.05 1.27a1.9 1.9 0 0 0 1.9 1.9c1.06 0 1.91-.87 1.91-1.9a1.902 1.902 0 0 0-1.9-1.89 1.89 1.89 0 0 0-1.9 1.9zm4.17 0a2.273 2.273 0 0 1-2.27 2.27 2.273 2.273 0 0 1-2.27-2.26 2.273 2.273 0 0 1 2.27-2.27 2.27 2.27 0 0 1 2.27 2.27z" fill="#78B742"/></g></svg>