<svg width="248" height="80" viewBox="0 0 248 80" xmlns="http://www.w3.org/2000/svg"><g fill="none" fill-rule="evenodd"><path d="M25.812 35.77l-13.167 4.79c.168 2.11.533 4.198 1.043 6.238l12.508-4.553a24.504 24.504 0 0 1-.384-6.478v.003zM84 21.213a37.572 37.572 0 0 0-3.213-5.454l-13.164 4.79a24.5 24.5 0 0 1 3.867 5.21L84 21.21v.003z" fill="#A30000"/><path d="M55.035 17.483a24.312 24.312 0 0 1 7.11 5.066l13.165-4.8a37.46 37.46 0 0 0-14.7-12.23c-18.815-8.77-41.27-.6-50.043 18.21a37.432 37.432 0 0 0-3.4 18.81l13.167-4.79a24.26 24.26 0 0 1 2.19-8.45c5.706-12.22 20.29-17.52 32.516-11.82M14.51 46.5L2 51.06a38.11 38.11 0 0 0 5.88 12.748l13.14-4.78a24.584 24.584 0 0 1-6.51-12.524" fill="#C00"/><path d="M69.072 41.538c-.21 2.85-.93 5.71-2.21 8.45-5.7 12.232-20.283 17.538-32.51 11.835a24.223 24.223 0 0 1-7.125-5.06L14.09 61.55a37.298 37.298 0 0 0 14.69 12.233c18.817 8.772 41.266.6 50.04-18.216a37.255 37.255 0 0 0 3.39-18.81l-13.136 4.78h-.002zm3.238-16.072L59.8 30.02c2.324 4.166 3.423 8.957 3.063 13.772L76 39.016a37.95 37.95 0 0 0-3.69-13.55z" fill="#C00"/><path d="M25.76 38.415c-.028-.878-.016-1.76.052-2.646l-13.167 4.79c.066.84.175 1.68.302 2.51l12.813-4.66zm56.33-20.67a37.85 37.85 0 0 0-1.302-1.986l-13.162 4.79a22.24 22.24 0 0 1 1.62 1.86l12.844-4.67z" fill="#820000"/><path d="M14.092 61.548a37.403 37.403 0 0 0 3.347 4.066l14.3-5.217a24.19 24.19 0 0 1-4.52-3.633l-13.13 4.784zm68.116-24.79l-13.135 4.778a24.098 24.098 0 0 1-1.11 5.654l14.297-5.217c.103-1.737.086-3.48-.052-5.214v-.01z" fill="#A30000"/><path d="M113.28 21.084c-.384 1.08-.92 1.988-1.608 2.724a6.79 6.79 0 0 1-2.472 1.68c-.96.384-2.008.576-3.144.576-1.136 0-2.18-.188-3.132-.564a6.753 6.753 0 0 1-2.46-1.656c-.688-.728-1.22-1.632-1.596-2.712-.376-1.08-.564-2.316-.564-3.708 0-1.392.192-2.628.576-3.708.384-1.08.92-1.988 1.608-2.724a6.79 6.79 0 0 1 2.472-1.68c.96-.384 2.008-.576 3.144-.576 1.136 0 2.18.188 3.132.564a6.64 6.64 0 0 1 2.448 1.656c.68.73 1.212 1.632 1.596 2.712.384 1.08.576 2.316.576 3.708 0 1.392-.192 2.628-.576 3.708zm-5.028-7.116c-.52-.784-1.252-1.176-2.196-1.176-.944 0-1.668.384-2.172 1.152-.504.768-.756 1.912-.756 3.432s.26 2.672.78 3.456c.52.784 1.252 1.176 2.196 1.176.944 0 1.668-.384 2.172-1.152.504-.768.756-1.912.756-3.432s-.26-2.672-.78-3.456zm22.308 3.312a4.56 4.56 0 0 1-1.42 1.788c-.61.456-1.336.784-2.18.984-.84.2-1.768.3-2.778.3h-2.334V25.8h-4.56V9h7.224c.976 0 1.868.1 2.676.3.808.2 1.5.52 2.076.96a4.3 4.3 0 0 1 1.332 1.728c.312.712.468 1.572.468 2.58 0 1.073-.17 1.976-.505 2.712zm-4.587-3.984c-.305-.336-.836-.504-1.592-.504h-2.53v3.768h2.46c.77 0 1.32-.16 1.64-.48.33-.32.49-.8.49-1.44 0-.56-.15-1.008-.46-1.344zm8.33 12.504V9h12.865v3.912h-8.256v2.256h4.968v3.84h-4.968v2.88h8.424V25.8h-13.032zm27.672 0l-4.008-5.544a24.82 24.82 0 0 1-.672-.948 98.114 98.114 0 0 1-1.452-2.196c-.217-.336-.38-.6-.493-.792.033.192.057.46.073.804.016.344.032.72.048 1.128.02.408.03.828.03 1.26V25.8h-4.46V9h4.11l3.7 4.968c.2.256.42.576.69.96a64.93 64.93 0 0 1 1.48 2.232c.21.336.36.592.46.768a7.85 7.85 0 0 1-.07-.804l-.05-1.128a32.17 32.17 0 0 1-.02-1.26V9h4.46v16.8h-3.82zm20.772-2.688a4.45 4.45 0 0 1-1.44 1.68c-.615.432-1.348.752-2.195.96a11.69 11.69 0 0 1-2.784.312c-1.36 0-2.66-.196-3.9-.588-1.24-.392-2.3-.876-3.18-1.452l2.256-3.648c.305.208.66.412 1.068.612.408.2.832.38 1.272.54.44.16.884.288 1.332.384.447.096.863.144 1.248.144.83 0 1.403-.08 1.716-.24.312-.16.468-.44.468-.84a.745.745 0 0 0-.132-.432c-.088-.128-.24-.252-.456-.372a5.122 5.122 0 0 0-.876-.36c-.368-.12-.832-.244-1.393-.372-1-.24-1.88-.496-2.64-.768-.76-.272-1.37-.612-1.87-1.02-.49-.408-.87-.9-1.11-1.476-.24-.576-.37-1.288-.37-2.136 0-.784.16-1.504.47-2.16a4.76 4.76 0 0 1 1.33-1.68c.58-.464 1.27-.824 2.09-1.08.82-.255 1.73-.384 2.74-.384 1.44 0 2.69.168 3.76.504 1.06.336 2.04.816 2.94 1.44l-2.26 3.648a10.13 10.13 0 0 0-2.25-1.176 7.058 7.058 0 0 0-2.42-.408c-.7 0-1.17.096-1.39.288a.95.95 0 0 0-.34.744c0 .16.05.3.13.42s.24.232.45.336c.21.104.49.208.84.312.35.104.8.22 1.35.348 1.06.256 1.97.536 2.74.84.77.304 1.4.664 1.9 1.08.49.4.86.91 1.1 1.488.24.576.36 1.256.36 2.04 0 .96-.17 1.784-.52 2.472h-.03zm14.15 2.688v-6.624h-5.233V25.8h-4.752V9h4.752v6.12h5.232V9h4.752v16.8h-4.752zm8.998 0V9h4.752v16.8h-4.752zm13.63-12.84v2.328h5.257v3.936h-5.256V25.8h-4.632V9h13.296v3.96h-8.664zm20.545.096V25.8h-4.656V13.056h-4.704V9h14.064v4.056h-4.704zM118.08 48.402c-.504 1.596-1.218 2.97-2.142 4.122a9.907 9.907 0 0 1-3.33 2.7c-1.296.648-2.724.972-4.284.972-1.56 0-2.982-.318-4.266-.954a9.59 9.59 0 0 1-3.294-2.682c-.913-1.152-1.615-2.52-2.106-4.104-.492-1.584-.738-3.324-.738-5.22s.252-3.642.756-5.238c.504-1.596 1.212-2.97 2.124-4.122a9.73 9.73 0 0 1 3.312-2.7c1.296-.648 2.724-.972 4.284-.972 1.56 0 2.982.318 4.266.954a9.6 9.6 0 0 1 3.294 2.682c.912 1.152 1.62 2.52 2.124 4.104s.756 3.324.756 5.22c0 1.897-.252 3.643-.756 5.238zm-2.646-9.468c-.396-1.283-.942-2.388-1.638-3.312-.696-.923-1.512-1.63-2.448-2.124a6.48 6.48 0 0 0-3.06-.738c-1.08 0-2.083.247-3.006.738-.924.492-1.723 1.188-2.394 2.088-.672.9-1.2 1.992-1.584 3.276-.384 1.284-.576 2.718-.576 4.302 0 1.584.198 3.02.594 4.302.396 1.284.936 2.388 1.62 3.312.684.924 1.494 1.632 2.43 2.124a6.476 6.476 0 0 0 3.06.738c1.08 0 2.088-.246 3.024-.738.936-.492 1.74-1.188 2.412-2.088.67-.9 1.2-1.992 1.584-3.276.383-1.283.576-2.718.576-4.302 0-1.584-.198-3.018-.594-4.302zM139.896 55.8L128.91 38.556a11.87 11.87 0 0 1-.467-.774l-.502-.9c-.16-.3-.33-.582-.48-.846a5.85 5.85 0 0 1-.34-.648V55.8h-2.73V30.6h2.74l10.91 17.568c.15.216.3.474.47.774l.51.9c.17.3.33.582.49.846.16.264.27.48.35.648V30.6h2.74v25.2h-2.7zm9.25 0V30.6h2.81v22.644h12.455V55.8h-15.26zm20.88 0V30.6h2.81v25.2h-2.81zm25.128 0L184.17 38.556a11.87 11.87 0 0 1-.468-.774l-.502-.9c-.168-.3-.33-.582-.485-.846a5.85 5.85 0 0 1-.34-.648V55.8h-2.737V30.6h2.736l10.908 17.568c.144.216.3.474.468.774l.504.9c.168.3.33.582.486.846.155.264.27.48.342.648V30.6h2.736v25.2h-2.664zm9.25 0V30.6h15.23v2.556h-12.42v7.92h7.2v2.556h-7.2v9.612h12.96V55.8h-15.77zm-98.042 15.544c-.204.594-.477 1.09-.82 1.484-.34.396-.737.69-1.187.883-.45.2-.92.29-1.413.29-.48 0-.93-.11-1.35-.33a3.616 3.616 0 0 1-1.026-.76v.9H98.73V61.64l1.836-.954v4.583a5.4 5.4 0 0 1 1.116-.79c.396-.22.846-.32 1.35-.32.504 0 .978.09 1.422.29.444.19.83.49 1.16.9.33.41.59.93.775 1.57.18.64.27 1.41.27 2.31 0 .82-.1 1.52-.31 2.11h.01zm-2.113-4.657c-.37-.537-.89-.806-1.57-.806-.44 0-.85.13-1.22.37a3.7 3.7 0 0 0-.92.83v3.96a3.43 3.43 0 0 0 1.52 1.13c.21.08.44.12.68.12.67 0 1.17-.24 1.52-.74.34-.49.52-1.24.52-2.24 0-1.19-.18-2.05-.55-2.59l.02-.03zm7.67 10.443h-1.96l1.37-3.51-3.48-9.27h2.03l1.54 4.626c.17.495.33.993.48 1.494l.21.73c.06.222.11.398.13.53a6.74 6.74 0 0 1 .15-.55c.14-.494.3-.987.46-1.477.08-.257.16-.487.23-.69l1.6-4.663h1.96l-4.75 12.78h.03zm20.68-9.72c-.49.612-1.17 1.026-2.04 1.242l2.57 5.148h-2.18l-2.5-4.986h-2.84V73.8h-1.88V61.2h5.52c.55 0 1.07.075 1.56.226.48.15.91.378 1.29.684.37.307.66.696.88 1.17.21.475.32 1.035.32 1.684 0 1.018-.25 1.835-.74 2.446h.04zm-1.76-3.905c-.39-.35-.91-.522-1.55-.522h-3.66v4.05h3.66c.63 0 1.15-.164 1.54-.495.39-.33.59-.837.59-1.52 0-.662-.2-1.165-.59-1.513h.01zm12.33 5.858l-.04.37h-6.24c.04.455.14.845.28 1.17.14.325.32.59.54.8.21.21.45.366.72.47.26.1.54.15.83.15.39 0 .76-.064 1.09-.196.33-.132.65-.318.96-.56l1.1 1.19c-.42.395-.89.7-1.41.917-.52.217-1.14.324-1.86.324a3.916 3.916 0 0 1-1.58-.324 3.67 3.67 0 0 1-1.3-.954 4.65 4.65 0 0 1-.88-1.548c-.22-.612-.33-1.31-.33-2.088 0-.805.1-1.513.3-2.124.2-.612.48-1.125.84-1.54a3.53 3.53 0 0 1 1.31-.944 4.272 4.272 0 0 1 1.68-.324c.67 0 1.26.126 1.75.378s.92.595 1.25 1.026c.33.432.57.936.73 1.512a6.69 6.69 0 0 1 .23 2.295h.03zm-2.03-2.08a2.184 2.184 0 0 0-.41-.755 1.942 1.942 0 0 0-.68-.513c-.27-.126-.6-.19-.98-.19-.63 0-1.12.208-1.49.622-.37.414-.6 1-.68 1.755h4.39a4.28 4.28 0 0 0-.17-.918h.02zM151.2 73.8v-.91a5.6 5.6 0 0 1-1.117.79c-.396.213-.846.32-1.35.32a3.56 3.56 0 0 1-1.422-.29c-.44-.19-.83-.49-1.16-.9-.33-.41-.58-.932-.77-1.574-.18-.642-.28-1.413-.28-2.312 0-.804.11-1.506.31-2.106.21-.6.48-1.098.82-1.494a3.25 3.25 0 0 1 1.19-.882 3.6 3.6 0 0 1 1.42-.288c.48 0 .93.11 1.35.327.42.22.76.48 1.03.77v-3.61l1.84-.95v13.12h-1.84l-.02-.01zm.017-6.685a3.433 3.433 0 0 0-.915-.824 3.057 3.057 0 0 0-.618-.29 2.005 2.005 0 0 0-.672-.11c-.67 0-1.177.25-1.523.75-.35.5-.52 1.25-.52 2.25 0 1.19.18 2.06.54 2.6.36.54.88.81 1.57.81a2.17 2.17 0 0 0 1.22-.37 3.7 3.7 0 0 0 .91-.83v-3.98zm17.37 6.685v-5.615h-5.814V73.8H160.9V61.2h1.873v5.095h5.814V61.2h1.872v12.6h-1.88zm10.313 0v-.936a4.207 4.207 0 0 1-1.152.81 3.262 3.262 0 0 1-1.44.325 4.12 4.12 0 0 1-1.16-.18 2.972 2.972 0 0 1-1.053-.55 2.857 2.857 0 0 1-.766-.99c-.2-.41-.3-.9-.3-1.48 0-.53.09-.99.29-1.37.19-.39.45-.71.79-.96s.73-.44 1.19-.56c.46-.12.95-.18 1.49-.18.86 0 1.56.12 2.1.36v-.7c0-.52-.16-.91-.46-1.19-.3-.28-.75-.42-1.33-.42a5.55 5.55 0 0 0-1.33.14c-.39.1-.77.25-1.15.45l-.72-1.4a5.85 5.85 0 0 1 1.46-.63c.51-.15 1.11-.22 1.78-.22 1.05 0 1.91.26 2.56.78.65.52.98 1.31.98 2.38v6.48h-1.81l.03.04zm0-4.03a3.442 3.442 0 0 0-.892-.307 6.29 6.29 0 0 0-1.27-.108c-.6 0-1.073.126-1.42.378a1.2 1.2 0 0 0-.523 1.026c0 .46.15.84.45 1.13.3.29.756.43 1.368.43a2.51 2.51 0 0 0 1.36-.38c.4-.25.71-.53.926-.83v-1.35.01zm9 3.796c-.25.14-.52.247-.8.315a4.17 4.17 0 0 1-1.018.12c-.66 0-1.18-.2-1.558-.61-.378-.41-.566-1.04-.566-1.89v-5.46h-1.35v-1.69h1.35v-2.7l1.817-.97v3.67h2.34v1.7h-2.34v5.13c0 .45.075.75.226.9.15.16.4.24.75.24.48-.01.95-.13 1.37-.37l-.21 1.64-.01-.02zm5.877-10.006a2.09 2.09 0 0 1-1.143 1.142c-.265.11-.55.165-.858.165a2.2 2.2 0 0 1-.857-.165 2.094 2.094 0 0 1-1.15-1.143 2.208 2.208 0 0 1-.17-.86 2.2 2.2 0 0 1 .16-.86 2.11 2.11 0 0 1 .45-.69 2.2 2.2 0 0 1 1.54-.63 2.102 2.102 0 0 1 2.15 2.15c0 .31-.05.59-.17.86l.04.03zm-.32-1.577a1.75 1.75 0 0 0-.964-.963 1.854 1.854 0 0 0-.717-.138c-.26 0-.5.046-.72.138a1.773 1.773 0 0 0-1.098 1.68c0 .26.046.5.138.72.18.436.524.78.96.96.22.093.46.14.72.14.256 0 .495-.047.717-.14a1.778 1.778 0 0 0 1.102-1.68c0-.256-.046-.495-.138-.717zm-.834.663a.703.703 0 0 1-.366.24l.486.954h-.473l-.46-.912h-.454v.912h-.402v-2.364h1.035c.1 0 .2.014.29.042.18.052.33.18.41.35a.764.764 0 0 1 .06.322.71.71 0 0 1-.14.456h.01zm-.372-.696a.427.427 0 0 0-.27-.084h-.62v.672h.63a.442.442 0 0 0 .27-.08c.08-.055.11-.14.11-.256a.305.305 0 0 0-.11-.252h-.01z" fill="#FFF"/></g></svg>